<svg width="743" height="135" viewBox="0 0 743 135" fill="none" xmlns="http://www.w3.org/2000/svg">
<path d="M133.143 104.586L132.971 105.104C132.936 105.311 128.728 121.316 117.69 121.316C106.617 121.316 102.409 105.311 102.34 105.138L88.7491 65.194L75.3998 26.0431C74.572 22.9041 67.6731 0 46.8731 0C26.0731 0 19.2088 22.9041 18.3465 26.0431L0.374998 78.7157C-1.14275 83.131 2.13418 87.7187 6.82539 87.7187C9.7229 87.7187 12.31 85.856 13.2758 83.0965L31.4198 29.9754L31.5922 29.4581C31.6267 29.2511 35.835 13.2803 46.9076 13.2803C57.9803 13.2803 62.1541 29.2856 62.223 29.4581L75.8138 69.3678L89.163 108.553C89.9908 111.692 96.8552 134.631 117.69 134.631C138.49 134.631 145.354 111.692 146.216 108.553L164.188 55.8806C165.706 51.4653 162.429 46.8776 157.737 46.8776C154.84 46.8776 152.253 48.7403 151.287 51.4998L133.143 104.586Z" fill="url(#paint0_linear)"/>
<path d="M181.538 48.2912H180.228C179.641 48.2912 179.4 47.8773 179.4 47.4633C179.4 47.0494 179.71 46.6699 180.228 46.6699H184.677C185.195 46.6699 185.505 47.0839 185.505 47.4633C185.505 47.8773 185.264 48.2912 184.677 48.2912H183.367V54.1897C183.367 54.7761 182.987 55.121 182.47 55.121C181.952 55.121 181.573 54.8106 181.573 54.1897V48.2912H181.538Z" fill="#7B8BA5"/>
<path d="M187.368 47.4986C187.437 47.0847 187.92 46.6018 188.541 46.6018C189.162 46.6018 189.61 47.0157 189.748 47.4642L191.162 52.1208H191.197L192.611 47.4642C192.749 47.0502 193.232 46.6018 193.818 46.6018C194.474 46.6018 194.922 47.0847 194.991 47.4986L196.129 54.0525C196.129 54.1215 196.129 54.1905 196.129 54.2595C196.129 54.7769 195.75 55.0873 195.267 55.0873C194.646 55.0873 194.405 54.8114 194.336 54.2595L193.611 49.4648H193.577L192.128 54.3975C192.059 54.6734 191.818 55.0873 191.162 55.0873C190.507 55.0873 190.265 54.6734 190.196 54.3975L188.748 49.4648H188.713L187.989 54.2595C187.92 54.8114 187.644 55.0873 187.058 55.0873C186.575 55.0873 186.195 54.7769 186.195 54.2595C186.195 54.1905 186.195 54.1215 186.195 54.0525L187.368 47.4986Z" fill="#7B8BA5"/>
<path d="M225.415 51.0518C225.381 51.1898 225.243 51.2933 225.105 51.2933C224.932 51.2933 224.794 51.1553 224.794 50.9828C224.794 48.9476 223.069 47.2919 220.965 47.2919C218.861 47.2919 217.136 48.9476 217.136 50.9828V89.3748C217.136 91.41 218.861 93.0657 220.965 93.0657C223.069 93.0657 224.794 91.41 224.794 89.3748V57.0538C224.794 56.9158 224.863 56.8123 224.967 56.7778C232.003 53.7768 237.316 52.3281 241.248 52.3281C248.837 52.3281 250.113 56.1914 250.113 64.8495V89.3403C250.113 91.3755 251.838 93.0312 253.942 93.0312C256.046 93.0312 257.736 91.3755 257.736 89.3403V64.8495C257.736 52.6385 255.252 46.0156 242.076 46.0156C236.626 46.0501 231.452 48.0508 225.415 51.0518Z" fill="#2F2F2F"/>
<path d="M395.402 29.0789C392.712 29.0789 390.504 31.2175 390.504 33.839C390.504 36.4606 392.712 38.5648 395.402 38.5648C398.093 38.5648 400.301 36.4606 400.301 33.839C400.301 31.183 398.127 29.0789 395.402 29.0789Z" fill="#2F2F2F"/>
<path d="M395.402 47.2917C393.298 47.2917 391.573 48.9474 391.573 50.9826V89.3746C391.573 91.4098 393.298 93.0655 395.402 93.0655C397.506 93.0655 399.231 91.4098 399.231 89.3746V50.9826C399.231 48.9474 397.506 47.2917 395.402 47.2917Z" fill="#2F2F2F"/>
<path d="M638.655 29.0789C635.965 29.0789 633.757 31.2175 633.757 33.839C633.757 36.4606 635.965 38.5648 638.655 38.5648C641.346 38.5648 643.553 36.4606 643.553 33.839C643.553 31.183 641.346 29.0789 638.655 29.0789Z" fill="#2F2F2F"/>
<path d="M638.655 47.2917C636.551 47.2917 634.826 48.9474 634.826 50.9826V89.3746C634.826 91.4098 636.551 93.0655 638.655 93.0655C640.759 93.0655 642.45 91.4098 642.45 89.3746V50.9826C642.484 48.9474 640.759 47.2917 638.655 47.2917Z" fill="#2F2F2F"/>
<path d="M355.803 45.8429C351.008 45.8429 346.179 47.0157 342.212 49.1198C342.109 49.1888 342.005 49.1888 341.902 49.1198C341.798 49.0508 341.729 48.9473 341.729 48.8439V32.7351C341.729 30.6999 340.005 29.0442 337.935 29.0442C335.831 29.0442 334.106 30.6999 334.106 32.7351V89.34C334.106 91.1682 335.451 92.6859 337.314 92.9619H337.349L337.762 93.0309C343.661 93.8243 347.214 94.2727 352.422 94.2727C360.046 94.2727 365.53 92.548 369.187 88.9606C372.912 85.3042 374.74 79.7162 374.74 71.9205V66.5739C374.809 52.4313 368.773 45.8429 355.803 45.8429ZM367.082 71.8859C367.082 77.8534 365.944 81.7858 363.53 84.2694C361.253 86.6495 357.804 87.7188 352.664 87.7188C347.869 87.7188 343.937 87.4083 342.04 87.2704C341.867 87.2704 341.764 87.1324 341.764 86.9599V55.2253C341.764 55.1218 341.833 55.0183 341.936 54.9493C345.696 52.8452 351.802 52.2933 354.803 52.2933C363.633 52.2933 367.082 56.2601 367.082 66.4359V71.8859V71.8859Z" fill="#2F2F2F"/>
<path d="M312.72 47.2919C310.616 47.2919 308.925 48.9475 308.925 50.9827V83.2692C308.925 83.4072 308.856 83.5107 308.718 83.5452C301.682 86.5462 296.369 87.995 292.437 87.995C284.848 87.995 283.572 84.1316 283.572 75.4391V50.9482C283.572 48.9131 281.847 47.2573 279.778 47.2573C277.674 47.2573 275.949 48.9131 275.949 50.9482V75.4391C275.949 87.65 278.433 94.2729 291.609 94.2729C297.059 94.2729 302.234 92.2722 308.27 89.2713C308.305 89.1333 308.408 89.0298 308.58 89.0298C308.753 89.0298 308.891 89.1678 308.891 89.3403C308.891 91.3754 310.616 93.0311 312.685 93.0311C314.789 93.0311 316.514 91.3754 316.514 89.3403V50.9482C316.549 48.9476 314.824 47.2919 312.72 47.2919Z" fill="#2F2F2F"/>
<path d="M467.944 46.05C463.149 46.05 457.699 47.8782 452.214 51.3621C452.145 51.3966 452.042 51.4312 451.973 51.3967C451.904 51.3967 451.835 51.3276 451.766 51.2586C449.558 47.7402 445.522 46.05 439.451 46.05C435.209 46.05 430.621 47.4298 425.792 50.1203C425.723 50.1548 425.619 50.1549 425.516 50.1549C425.412 50.1204 425.378 50.0513 425.343 49.9479C424.86 48.3956 423.377 47.3263 421.687 47.3263C419.583 47.3263 417.858 48.9821 417.858 51.0172V89.4092C417.858 91.4444 419.583 93.1001 421.687 93.1001C423.791 93.1001 425.516 91.4444 425.516 89.4092V56.6743C425.516 56.5708 425.585 56.4673 425.688 56.3983C430.172 53.9147 435.071 52.3625 438.451 52.3625C446.385 52.3625 446.385 56.8467 446.385 63.642V89.3747C446.385 91.4099 448.109 93.0656 450.214 93.0656C452.318 93.0656 454.042 91.4099 454.042 89.3747V63.642C454.042 61.5379 454.042 59.1578 453.732 56.8812C453.698 56.7777 453.766 56.6398 453.87 56.5708C458.458 53.9837 463.494 52.3625 466.978 52.3625C474.911 52.3625 474.911 56.8467 474.911 63.642V89.3747C474.911 91.4099 476.636 93.0656 478.74 93.0656C480.844 93.0656 482.569 91.4099 482.569 89.3747V63.642C482.569 59.7787 482.569 55.4325 480.741 51.9831C478.568 47.9817 474.428 46.05 467.944 46.05Z" fill="#2F2F2F"/>
<path d="M620.822 46.0498C615.579 46.4637 610.473 47.9815 604.368 51.017C604.333 51.1549 604.195 51.2584 604.058 51.2584C603.885 51.2584 603.747 51.1204 603.747 50.948C603.747 48.9128 602.022 47.2571 599.953 47.2571C597.849 47.2571 596.124 48.9128 596.124 50.948V89.34C596.124 91.3751 597.849 93.0308 599.953 93.0308C602.057 93.0308 603.747 91.3751 603.747 89.34V57.0189C603.747 56.8809 603.816 56.7774 603.92 56.7429C612.198 53.2245 619.269 52.5002 621.236 52.3277H621.27C622.133 52.2587 622.891 51.8793 623.478 51.2239C624.064 50.5685 624.34 49.7752 624.271 48.9128C624.133 47.2916 622.615 45.9463 620.822 46.0498Z" fill="#2F2F2F"/>
<path d="M518.443 46.05C505.473 46.05 498.022 55.4669 498.022 68.7817V71.1963C498.022 87.2361 505.991 94.3074 519.926 94.3074C525.687 94.3074 533.345 92.0308 535.552 90.6855C536.897 89.8577 537.518 88.1674 536.932 86.6842C536.276 84.925 534.276 83.9936 532.448 84.649C532.379 84.6835 532.31 84.6835 532.241 84.718C527.86 86.7186 521.927 87.0291 519.65 87.0291C511.682 87.0291 506.129 85.1319 505.853 74.4043H535.656C539.415 74.4043 539.45 70.7134 539.45 70.7134V67.2985C539.45 48.3267 524.721 46.05 518.443 46.05ZM531.516 67.0225H505.818V66.6431C505.818 57.4676 511.475 53.2938 519.616 53.2938C519.616 53.2938 531.792 52.8454 531.792 66.6775C531.827 66.712 531.792 67.0225 531.516 67.0225Z" fill="#2F2F2F"/>
<path d="M690.914 93.1C692.466 92.7551 693.639 91.4098 693.639 89.7886C693.639 87.9259 692.052 86.4082 690.121 86.4082C690.052 86.4082 689.983 86.4082 689.914 86.4082C685.084 86.8221 681.532 87.029 679.22 87.029C671.045 87.029 665.388 85.0284 665.388 73.6108V66.6775C665.388 55.2599 671.045 53.3283 679.22 53.3283C683.222 53.3283 686.706 53.6732 689.845 53.9491C689.948 53.9491 690.017 53.9491 690.121 53.9491C692.052 53.9491 693.639 52.4314 693.639 50.5687C693.639 48.9475 692.466 47.5677 690.88 47.2573C688.327 46.7054 683.774 46.0845 678.013 46.0845C664.077 46.0845 657.593 53.5007 657.593 66.712V73.6453C657.593 86.7531 664.077 94.3418 678.013 94.3418C683.808 94.3073 688.327 93.652 690.914 93.1Z" fill="#2F2F2F"/>
<path d="M737.17 53.0524C738.757 53.1903 740.172 52.121 740.447 50.6033C740.723 48.982 739.62 47.4298 737.964 47.1538C734.928 46.6364 730.065 46.05 725.098 46.05C712.3 46.05 706.609 49.8099 706.609 57.5021C706.609 64.0905 710.782 67.8504 720.613 71.6102L724.339 73.0245C733.066 76.3704 734.652 77.6122 734.652 81.717C734.652 85.7183 732.41 87.8914 723.683 87.8914C719.234 87.8914 714.232 87.4086 710.645 87.0636C710.576 87.0636 710.472 87.0636 710.369 87.0636C708.644 87.0636 707.264 88.4089 707.264 90.0991C707.264 91.5824 708.368 92.8241 709.817 93.0656C713.128 93.652 718.751 94.3764 723.959 94.3764C739.102 94.3764 743 88.2019 743 81.6135C743 74.5077 739.482 71.6792 727.581 66.919L723.89 65.5048C716.647 62.6762 714.991 61.1585 714.991 57.5711C714.991 53.3973 718.061 52.5694 725.477 52.5694C728.271 52.466 732.755 52.7074 737.17 53.0524Z" fill="#2F2F2F"/>
<path d="M580.118 86.6499C578.29 86.8914 575.186 87.1673 573.289 87.1673C568.563 87.1673 568.08 86.2704 568.08 80.6824V56.226C568.08 56.157 568.115 56.0536 568.184 56.0191C568.253 55.9501 568.322 55.9156 568.425 55.9156H580.084C582.188 55.9156 583.913 54.2598 583.913 52.2247C583.913 50.1895 582.188 48.5338 580.084 48.5338H568.39C568.218 48.5338 568.08 48.3958 568.08 48.2234L568.046 37.6337C568.046 35.633 566.321 33.9773 564.251 33.9773C562.147 33.9773 560.422 35.633 560.422 37.6337L560.388 48.2234C560.388 48.3958 560.25 48.5338 560.077 48.5338H556.249C554.144 48.5338 552.42 50.1895 552.42 52.2247C552.42 54.2598 554.144 55.9156 556.249 55.9156H560.043C560.112 55.9156 560.215 55.9501 560.25 56.0191C560.284 56.0536 560.319 56.0881 560.319 56.1225V81.7172C560.319 91.0651 563.078 94.3076 572.357 94.3076C575.358 94.3076 579.601 93.5832 581.498 92.9968C583.051 92.5484 584.051 91.0996 583.878 89.4784C583.602 87.7192 581.947 86.4429 580.118 86.6499Z" fill="#2F2F2F"/>
<defs>
<linearGradient id="paint0_linear" x1="0.0155671" y1="67.2992" x2="164.541" y2="67.2992" gradientUnits="userSpaceOnUse">
<stop stop-color="#B239FC"/>
<stop offset="1" stop-color="#00FCFF"/>
</linearGradient>
</defs>
</svg>
